<svg xmlns="http://www.w3.org/2000/svg" viewBox="0 0 1024 1024" fill="none">
  <defs>
    <linearGradient id="bg" x1="0" y1="0" x2="1" y2="1">
      <stop offset="0%" stop-color="#A78BFA"/>
      <stop offset="55%" stop-color="#7C3AED"/>
      <stop offset="100%" stop-color="#4C1D95"/>
    </linearGradient>
    <radialGradient id="hilight" cx="30%" cy="20%" r="70%">
      <stop offset="0%" stop-color="#EDE9FE" stop-opacity="0.55"/>
      <stop offset="60%" stop-color="#A78BFA" stop-opacity="0"/>
    </radialGradient>
    <radialGradient id="shadow" cx="50%" cy="50%" r="50%">
      <stop offset="0%" stop-color="#1F1147" stop-opacity="0.45"/>
      <stop offset="100%" stop-color="#1F1147" stop-opacity="0"/>
    </radialGradient>
  </defs>
  <rect width="1024" height="1024" rx="224" fill="url(#bg)"/>
  <rect width="1024" height="1024" rx="224" fill="url(#hilight)"/>
  <!-- Scaled-up white mark, fills ~75% of canvas -->
  <g transform="translate(120, 120) scale(3.9)">
    <ellipse cx="105" cy="184" rx="78" ry="6" fill="url(#shadow)"/>
    <path d="M 50 30 L 86 44 L 86 148 L 50 134 Z" fill="#FFFFFF"/>
    <path d="M 50 30 L 50 134 L 32 126 L 32 22 Z" fill="#2E1065"/>
    <path d="M 50 30 L 32 22 L 68 8 L 86 16 Z" fill="#EDE9FE"/>
    <path d="M 50 134 L 86 148 L 168 126 L 132 112 Z" fill="#2E1065"/>
    <path d="M 86 148 L 168 126 L 168 150 L 86 172 Z" fill="#FFFFFF"/>
    <path d="M 86 148 L 86 172 L 50 158 L 50 134 Z" fill="#1F1147"/>
  </g>
</svg>
