<svg xmlns="http://www.w3.org/2000/svg" viewBox="0 0 500 420" fill="none">
  <defs>
    <style>
      @import url('https://fonts.googleapis.com/css2?family=Geist:wght@800&amp;display=swap');
      .stacked-wm { font-family: 'Geist', system-ui, sans-serif; font-weight: 800; font-size: 42px; fill: #0F0A1F; letter-spacing: -0.025em; text-anchor: middle; }
      .stacked-wm .l-accent { fill: #7C3AED; }
    </style>
    <linearGradient id="ls-face" x1="0" y1="0" x2="0" y2="1">
      <stop offset="0%" stop-color="#C4B5FD"/>
      <stop offset="100%" stop-color="#8B5CF6"/>
    </linearGradient>
    <radialGradient id="ls-shadow" cx="50%" cy="50%" r="50%">
      <stop offset="0%" stop-color="#7C3AED" stop-opacity="0.4"/>
      <stop offset="100%" stop-color="#7C3AED" stop-opacity="0"/>
    </radialGradient>
  </defs>
  <g transform="translate(145, 10)">
    <ellipse cx="105" cy="184" rx="78" ry="6" fill="url(#ls-shadow)"/>
    <path d="M 50 30 L 86 44 L 86 148 L 50 134 Z" fill="url(#ls-face)"/>
    <path d="M 50 30 L 50 134 L 32 126 L 32 22 Z" fill="#1F1147"/>
    <path d="M 50 30 L 32 22 L 68 8 L 86 16 Z" fill="#EDE9FE"/>
    <path d="M 50 134 L 86 148 L 168 126 L 132 112 Z" fill="#1F1147"/>
    <path d="M 86 148 L 168 126 L 168 150 L 86 172 Z" fill="url(#ls-face)"/>
    <path d="M 86 148 L 86 172 L 50 158 L 50 134 Z" fill="#0F0A1F"/>
  </g>
  <text x="250" y="280" class="stacked-wm"><tspan class="l-accent">L</tspan>inear</text>
  <text x="250" y="330" class="stacked-wm">Marketing</text>
  <text x="250" y="380" class="stacked-wm">Solutions</text>
</svg>
